<?xml version="1.0" encoding="UTF-8"?>
<svg xmlns="http://www.w3.org/2000/svg"
     xmlns:xlink="http://www.w3.org/1999/xlink"
     xmlns:gadfly="http://www.gadflyjl.org/ns"
     version="1.2"
     width="254mm" height="127mm" viewBox="0 0 254 127"
     stroke="none"
     fill="#000000"
     stroke-width="0.3"
     font-size="3.88"
>
<g stroke="#000000" stroke-opacity="0.000" fill="#222831" id="img-817de1bc-1">
  <rect x="0" y="0" width="254" height="127"/>
</g>
<g class="plotroot xscalable yscalable" id="img-817de1bc-2">
  <g font-size="3.88" font-family="'PT Sans','Helvetica Neue','Helvetica',sans-serif" fill="#A1A1A1" stroke="#000000" stroke-opacity="0.000" id="img-817de1bc-3">
    <text x="133.75" y="115.39" text-anchor="middle" dy="0.6em">x</text>
  </g>
  <g class="guide xlabels" font-size="2.82" font-family="'PT Sans Caption','Helvetica Neue','Helvetica',sans-serif" fill="#A1A1A1" id="img-817de1bc-4">
    <text x="20.5" y="108.72" text-anchor="middle" dy="0.6em">0</text>
    <text x="65.8" y="108.72" text-anchor="middle" dy="0.6em">5</text>
    <text x="111.1" y="108.72" text-anchor="middle" dy="0.6em">10</text>
    <text x="156.4" y="108.72" text-anchor="middle" dy="0.6em">15</text>
    <text x="201.7" y="108.72" text-anchor="middle" dy="0.6em">20</text>
    <text x="247" y="108.72" text-anchor="middle" dy="0.6em">25</text>
  </g>
<g clip-path="url(#img-817de1bc-5)">
  <g id="img-817de1bc-6">
    <g pointer-events="visible" opacity="1" fill="#222831" stroke="#000000" stroke-opacity="0.000" class="guide background" id="img-817de1bc-7">
      <rect x="18.5" y="5" width="230.5" height="102.72"/>
    </g>
    <g class="guide ygridlines xfixed" stroke-dasharray="0.5,0.5" stroke-width="0.2" stroke="#575757" id="img-817de1bc-8">
      <path fill="none" d="M18.5,105.72 L 249 105.72"/>
      <path fill="none" d="M18.5,81.04 L 249 81.04"/>
      <path fill="none" d="M18.5,56.36 L 249 56.36"/>
      <path fill="none" d="M18.5,31.68 L 249 31.68"/>
      <path fill="none" d="M18.5,7 L 249 7"/>
    </g>
    <g class="guide xgridlines yfixed" stroke-dasharray="0.5,0.5" stroke-width="0.2" stroke="#575757" id="img-817de1bc-9">
      <path fill="none" d="M20.5,5 L 20.5 107.72"/>
      <path fill="none" d="M65.8,5 L 65.8 107.72"/>
      <path fill="none" d="M111.1,5 L 111.1 107.72"/>
      <path fill="none" d="M156.4,5 L 156.4 107.72"/>
      <path fill="none" d="M201.7,5 L 201.7 107.72"/>
      <path fill="none" d="M247,5 L 247 107.72"/>
    </g>
    <g class="plotpanel" id="img-817de1bc-10">
      <g class="geometry color_RGB{Float32}(0.9960785f0,0.2627451f0,0.39607847f0)" stroke-width="0.3" stroke="#CE0042" id="img-817de1bc-11">
        <path fill="none" d="M19,36.71 L 22 36.71"/>
        <path fill="none" d="M28.06,27.51 L 31.06 27.51"/>
        <path fill="none" d="M37.12,73.27 L 40.12 73.27"/>
        <path fill="none" d="M46.18,79.72 L 49.18 79.72"/>
        <path fill="none" d="M55.24,80.08 L 58.24 80.08"/>
        <path fill="none" d="M64.3,77.03 L 67.3 77.03"/>
        <path fill="none" d="M73.36,100.54 L 76.36 100.54"/>
        <path fill="none" d="M82.42,74.28 L 85.42 74.28"/>
        <path fill="none" d="M91.48,73.52 L 94.48 73.52"/>
        <path fill="none" d="M100.54,70.69 L 103.54 70.69"/>
        <path fill="none" d="M109.6,70.95 L 112.6 70.95"/>
        <path fill="none" d="M118.66,66.63 L 121.66 66.63"/>
        <path fill="none" d="M127.72,69.84 L 130.72 69.84"/>
        <path fill="none" d="M136.78,35.45 L 139.78 35.45"/>
        <path fill="none" d="M145.84,35.07 L 148.84 35.07"/>
        <path fill="none" d="M154.9,32.08 L 157.9 32.08"/>
        <path fill="none" d="M163.96,32.43 L 166.96 32.43"/>
        <path fill="none" d="M173.02,32.44 L 176.02 32.44"/>
        <path fill="none" d="M182.08,33.11 L 185.08 33.11"/>
        <path fill="none" d="M191.14,33.26 L 194.14 33.26"/>
        <path fill="none" d="M200.2,33.52 L 203.2 33.52"/>
        <path fill="none" d="M209.26,33.21 L 212.26 33.21"/>
        <path fill="none" d="M218.32,33.04 L 221.32 33.04"/>
        <path fill="none" d="M227.38,34.34 L 230.38 34.34"/>
        <path fill="none" d="M20.5,33.87 L 20.5 36.71"/>
        <path fill="none" d="M29.56,24.56 L 29.56 27.51"/>
        <path fill="none" d="M38.62,69.41 L 38.62 73.27"/>
        <path fill="none" d="M47.68,75.12 L 47.68 79.72"/>
        <path fill="none" d="M56.74,74.53 L 56.74 80.08"/>
        <path fill="none" d="M65.8,70.41 L 65.8 77.03"/>
        <path fill="none" d="M74.86,92.8 L 74.86 100.54"/>
        <path fill="none" d="M83.92,66.51 L 83.92 74.28"/>
        <path fill="none" d="M92.98,66.18 L 92.98 73.52"/>
        <path fill="none" d="M102.04,64.49 L 102.04 70.69"/>
        <path fill="none" d="M111.1,65.81 L 111.1 70.95"/>
        <path fill="none" d="M120.16,62.29 L 120.16 66.63"/>
        <path fill="none" d="M129.22,65.92 L 129.22 69.84"/>
        <path fill="none" d="M138.28,32.22 L 138.28 35.45"/>
        <path fill="none" d="M147.34,32.07 L 147.34 35.07"/>
        <path fill="none" d="M156.4,29.25 L 156.4 32.08"/>
        <path fill="none" d="M165.46,29.66 L 165.46 32.43"/>
        <path fill="none" d="M174.52,29.75 L 174.52 32.44"/>
        <path fill="none" d="M183.58,30.47 L 183.58 33.11"/>
        <path fill="none" d="M192.64,30.68 L 192.64 33.26"/>
        <path fill="none" d="M201.7,31.01 L 201.7 33.52"/>
        <path fill="none" d="M210.76,30.76 L 210.76 33.21"/>
        <path fill="none" d="M219.82,30.54 L 219.82 33.04"/>
        <path fill="none" d="M228.88,31.74 L 228.88 34.34"/>
        <path fill="none" d="M19,33.87 L 22 33.87"/>
        <path fill="none" d="M28.06,24.56 L 31.06 24.56"/>
        <path fill="none" d="M37.12,69.41 L 40.12 69.41"/>
        <path fill="none" d="M46.18,75.12 L 49.18 75.12"/>
        <path fill="none" d="M55.24,74.53 L 58.24 74.53"/>
        <path fill="none" d="M64.3,70.41 L 67.3 70.41"/>
        <path fill="none" d="M73.36,92.8 L 76.36 92.8"/>
        <path fill="none" d="M82.42,66.51 L 85.42 66.51"/>
        <path fill="none" d="M91.48,66.18 L 94.48 66.18"/>
        <path fill="none" d="M100.54,64.49 L 103.54 64.49"/>
        <path fill="none" d="M109.6,65.81 L 112.6 65.81"/>
        <path fill="none" d="M118.66,62.29 L 121.66 62.29"/>
        <path fill="none" d="M127.72,65.92 L 130.72 65.92"/>
        <path fill="none" d="M136.78,32.22 L 139.78 32.22"/>
        <path fill="none" d="M145.84,32.07 L 148.84 32.07"/>
        <path fill="none" d="M154.9,29.25 L 157.9 29.25"/>
        <path fill="none" d="M163.96,29.66 L 166.96 29.66"/>
        <path fill="none" d="M173.02,29.75 L 176.02 29.75"/>
        <path fill="none" d="M182.08,30.47 L 185.08 30.47"/>
        <path fill="none" d="M191.14,30.68 L 194.14 30.68"/>
        <path fill="none" d="M200.2,31.01 L 203.2 31.01"/>
        <path fill="none" d="M209.26,30.76 L 212.26 30.76"/>
        <path fill="none" d="M218.32,30.54 L 221.32 30.54"/>
        <path fill="none" d="M227.38,31.74 L 230.38 31.74"/>
      </g>
      <g stroke-width="0.3" fill="#000000" fill-opacity="0.000" class="geometry" stroke-dasharray="none" stroke="#FE4365" id="img-817de1bc-12">
        <path fill="none" d="M29.56,47.46 L 38.62 57.76 47.68 65.86 56.74 71.94 65.8 75.94 74.86 78.01 83.92 77.92 92.98 75.78 102.04 71.6 111.1 65.89 120.16 59.07 129.22 52.16 138.28 46.31 147.34 40.97 156.4 36.86 165.46 33.78 174.52 31.45 183.58 29.94 192.64 29.33 201.7 29.56 210.76 30.66 219.82 32.6 228.88 35.36"/>
      </g>
      <g class="geometry" id="img-817de1bc-13">
        <g class="color_RGBA{Float32}(0.9960785f0,0.2627451f0,0.39607847f0,1.0f0)" stroke-width="0.3" id="img-817de1bc-14">
          <g stroke="#B58486" fill="#FE4365" id="img-817de1bc-15">
            <use xlink:href="#img-817de1bc-16" x="228.88" y="33.04"/>
          </g>
          <g stroke="#B58486" fill="#FE4365" id="img-817de1bc-17">
            <use xlink:href="#img-817de1bc-18" x="219.82" y="31.79"/>
          </g>
          <g stroke="#B58486" fill="#FE4365" id="img-817de1bc-19">
            <use xlink:href="#img-817de1bc-20" x="210.76" y="31.98"/>
          </g>
          <g stroke="#B58486" fill="#FE4365" id="img-817de1bc-21">
            <use xlink:href="#img-817de1bc-22" x="201.7" y="32.26"/>
          </g>
          <g stroke="#B58486" fill="#FE4365" id="img-817de1bc-23">
            <use xlink:href="#img-817de1bc-24" x="192.64" y="31.97"/>
          </g>
          <g stroke="#B58486" fill="#FE4365" id="img-817de1bc-25">
            <use xlink:href="#img-817de1bc-26" x="183.58" y="31.79"/>
          </g>
          <g stroke="#B58486" fill="#FE4365" id="img-817de1bc-27">
            <use xlink:href="#img-817de1bc-28" x="174.52" y="31.1"/>
          </g>
          <g stroke="#B58486" fill="#FE4365" id="img-817de1bc-29">
            <use xlink:href="#img-817de1bc-30" x="165.46" y="31.04"/>
          </g>
          <g stroke="#B58486" fill="#FE4365" id="img-817de1bc-31">
            <use xlink:href="#img-817de1bc-32" x="156.4" y="30.66"/>
          </g>
          <g stroke="#B58486" fill="#FE4365" id="img-817de1bc-33">
            <use xlink:href="#img-817de1bc-34" x="147.34" y="33.57"/>
          </g>
          <g stroke="#B58486" fill="#FE4365" id="img-817de1bc-35">
            <use xlink:href="#img-817de1bc-36" x="138.28" y="33.83"/>
          </g>
          <g stroke="#B58486" fill="#FE4365" id="img-817de1bc-37">
            <use xlink:href="#img-817de1bc-38" x="129.22" y="67.88"/>
          </g>
          <g stroke="#B58486" fill="#FE4365" id="img-817de1bc-39">
            <use xlink:href="#img-817de1bc-40" x="120.16" y="64.46"/>
          </g>
          <g stroke="#B58486" fill="#FE4365" id="img-817de1bc-41">
            <use xlink:href="#img-817de1bc-42" x="111.1" y="68.38"/>
          </g>
          <g stroke="#B58486" fill="#FE4365" id="img-817de1bc-43">
            <use xlink:href="#img-817de1bc-44" x="102.04" y="67.59"/>
          </g>
          <g stroke="#B58486" fill="#FE4365" id="img-817de1bc-45">
            <use xlink:href="#img-817de1bc-46" x="92.98" y="69.85"/>
          </g>
          <g stroke="#B58486" fill="#FE4365" id="img-817de1bc-47">
            <use xlink:href="#img-817de1bc-48" x="83.92" y="70.4"/>
          </g>
          <g stroke="#B58486" fill="#FE4365" id="img-817de1bc-49">
            <use xlink:href="#img-817de1bc-50" x="74.86" y="96.67"/>
          </g>
          <g stroke="#B58486" fill="#FE4365" id="img-817de1bc-51">
            <use xlink:href="#img-817de1bc-52" x="65.8" y="73.72"/>
          </g>
          <g stroke="#B58486" fill="#FE4365" id="img-817de1bc-53">
            <use xlink:href="#img-817de1bc-54" x="56.74" y="77.31"/>
          </g>
          <g stroke="#B58486" fill="#FE4365" id="img-817de1bc-55">
            <use xlink:href="#img-817de1bc-56" x="47.68" y="77.42"/>
          </g>
          <g stroke="#B58486" fill="#FE4365" id="img-817de1bc-57">
            <use xlink:href="#img-817de1bc-58" x="38.62" y="71.34"/>
          </g>
          <g stroke="#B58486" fill="#FE4365" id="img-817de1bc-59">
            <use xlink:href="#img-817de1bc-60" x="29.56" y="26.03"/>
          </g>
          <g stroke="#B58486" fill="#FE4365" id="img-817de1bc-61">
            <use xlink:href="#img-817de1bc-62" x="20.5" y="35.29"/>
          </g>
        </g>
      </g>
    </g>
  </g>
</g>
  <g class="guide ylabels" font-size="2.82" font-family="'PT Sans Caption','Helvetica Neue','Helvetica',sans-serif" fill="#A1A1A1" id="img-817de1bc-63">
    <text x="17.5" y="105.72" text-anchor="end" dy="0.35em">0.70</text>
    <text x="17.5" y="81.04" text-anchor="end" dy="0.35em">0.75</text>
    <text x="17.5" y="56.36" text-anchor="end" dy="0.35em">0.80</text>
    <text x="17.5" y="31.68" text-anchor="end" dy="0.35em">0.85</text>
    <text x="17.5" y="7" text-anchor="end" dy="0.35em">0.90</text>
  </g>
  <g font-size="3.88" font-family="'PT Sans','Helvetica Neue','Helvetica',sans-serif" fill="#A1A1A1" stroke="#000000" stroke-opacity="0.000" id="img-817de1bc-64">
    <text x="8.81" y="56.36" text-anchor="end" dy="0.35em">y</text>
  </g>
</g>
<defs>
  <clipPath id="img-817de1bc-5">
  <path d="M18.5,5 L 249 5 249 107.72 18.5 107.72" />
</clipPath>
  <g id="img-817de1bc-16">
    <circle cx="0" cy="0" r="0.9"/>
  </g>
  <g id="img-817de1bc-18">
    <circle cx="0" cy="0" r="0.9"/>
  </g>
  <g id="img-817de1bc-20">
    <circle cx="0" cy="0" r="0.9"/>
  </g>
  <g id="img-817de1bc-22">
    <circle cx="0" cy="0" r="0.9"/>
  </g>
  <g id="img-817de1bc-24">
    <circle cx="0" cy="0" r="0.9"/>
  </g>
  <g id="img-817de1bc-26">
    <circle cx="0" cy="0" r="0.9"/>
  </g>
  <g id="img-817de1bc-28">
    <circle cx="0" cy="0" r="0.9"/>
  </g>
  <g id="img-817de1bc-30">
    <circle cx="0" cy="0" r="0.9"/>
  </g>
  <g id="img-817de1bc-32">
    <circle cx="0" cy="0" r="0.9"/>
  </g>
  <g id="img-817de1bc-34">
    <circle cx="0" cy="0" r="0.9"/>
  </g>
  <g id="img-817de1bc-36">
    <circle cx="0" cy="0" r="0.9"/>
  </g>
  <g id="img-817de1bc-38">
    <circle cx="0" cy="0" r="0.9"/>
  </g>
  <g id="img-817de1bc-40">
    <circle cx="0" cy="0" r="0.9"/>
  </g>
  <g id="img-817de1bc-42">
    <circle cx="0" cy="0" r="0.9"/>
  </g>
  <g id="img-817de1bc-44">
    <circle cx="0" cy="0" r="0.9"/>
  </g>
  <g id="img-817de1bc-46">
    <circle cx="0" cy="0" r="0.9"/>
  </g>
  <g id="img-817de1bc-48">
    <circle cx="0" cy="0" r="0.9"/>
  </g>
  <g id="img-817de1bc-50">
    <circle cx="0" cy="0" r="0.9"/>
  </g>
  <g id="img-817de1bc-52">
    <circle cx="0" cy="0" r="0.9"/>
  </g>
  <g id="img-817de1bc-54">
    <circle cx="0" cy="0" r="0.9"/>
  </g>
  <g id="img-817de1bc-56">
    <circle cx="0" cy="0" r="0.9"/>
  </g>
  <g id="img-817de1bc-58">
    <circle cx="0" cy="0" r="0.9"/>
  </g>
  <g id="img-817de1bc-60">
    <circle cx="0" cy="0" r="0.9"/>
  </g>
  <g id="img-817de1bc-62">
    <circle cx="0" cy="0" r="0.9"/>
  </g>
</defs>
</svg>
