<?xml version="1.0" encoding="UTF-8"?>
<svg xmlns="http://www.w3.org/2000/svg"
     xmlns:xlink="http://www.w3.org/1999/xlink"
     xmlns:gadfly="http://www.gadflyjl.org/ns"
     version="1.2"
     width="254mm" height="127mm" viewBox="0 0 254 127"
     stroke="none"
     fill="#000000"
     stroke-width="0.3"
     font-size="3.88"
>
<g stroke="#000000" stroke-opacity="0.000" fill="#222831" id="img-20eae859-1">
  <rect x="0" y="0" width="254" height="127"/>
</g>
<g class="plotroot xscalable yscalable" id="img-20eae859-2">
  <g font-size="3.88" font-family="'PT Sans','Helvetica Neue','Helvetica',sans-serif" fill="#A1A1A1" stroke="#000000" stroke-opacity="0.000" id="img-20eae859-3">
    <text x="133.75" y="115.39" text-anchor="middle" dy="0.6em">x</text>
  </g>
  <g class="guide xlabels" font-size="2.82" font-family="'PT Sans Caption','Helvetica Neue','Helvetica',sans-serif" fill="#A1A1A1" id="img-20eae859-4">
    <text x="20.5" y="108.72" text-anchor="middle" dy="0.6em">0</text>
    <text x="65.8" y="108.72" text-anchor="middle" dy="0.6em">5</text>
    <text x="111.1" y="108.72" text-anchor="middle" dy="0.6em">10</text>
    <text x="156.4" y="108.72" text-anchor="middle" dy="0.6em">15</text>
    <text x="201.7" y="108.72" text-anchor="middle" dy="0.6em">20</text>
    <text x="247" y="108.72" text-anchor="middle" dy="0.6em">25</text>
  </g>
<g clip-path="url(#img-20eae859-5)">
  <g id="img-20eae859-6">
    <g pointer-events="visible" opacity="1" fill="#222831" stroke="#000000" stroke-opacity="0.000" class="guide background" id="img-20eae859-7">
      <rect x="18.5" y="5" width="230.5" height="102.72"/>
    </g>
    <g class="guide ygridlines xfixed" stroke-dasharray="0.5,0.5" stroke-width="0.2" stroke="#575757" id="img-20eae859-8">
      <path fill="none" d="M18.5,105.71 L 249 105.71"/>
      <path fill="none" d="M18.5,85.97 L 249 85.97"/>
      <path fill="none" d="M18.5,66.23 L 249 66.23"/>
      <path fill="none" d="M18.5,46.49 L 249 46.49"/>
      <path fill="none" d="M18.5,26.74 L 249 26.74"/>
      <path fill="none" d="M18.5,7 L 249 7"/>
    </g>
    <g class="guide xgridlines yfixed" stroke-dasharray="0.5,0.5" stroke-width="0.2" stroke="#575757" id="img-20eae859-9">
      <path fill="none" d="M20.5,5 L 20.5 107.72"/>
      <path fill="none" d="M65.8,5 L 65.8 107.72"/>
      <path fill="none" d="M111.1,5 L 111.1 107.72"/>
      <path fill="none" d="M156.4,5 L 156.4 107.72"/>
      <path fill="none" d="M201.7,5 L 201.7 107.72"/>
      <path fill="none" d="M247,5 L 247 107.72"/>
    </g>
    <g class="plotpanel" id="img-20eae859-10">
      <g stroke-width="0.3" fill="#000000" fill-opacity="0.000" class="geometry" stroke-dasharray="none" stroke="#FE4365" id="img-20eae859-11">
        <path fill="none" d="M29.56,16.07 L 38.62 23.25 47.68 30.59 56.74 37.88 65.8 45.11 74.86 52.08 83.92 58.88 92.98 65.55 102.04 72.05 111.1 76.86 120.16 80.49 129.22 81.16 138.28 79.19 147.34 75.91 156.4 71.9 165.46 67.2 174.52 61.64 183.58 55.36 192.64 48.37 201.7 40.64 210.76 32.25 219.82 23.17 228.88 13.46"/>
      </g>
      <g class="geometry" id="img-20eae859-12">
        <g class="color_RGBA{Float32}(0.9960785f0,0.2627451f0,0.39607847f0,1.0f0)" stroke-width="0.3" id="img-20eae859-13">
          <g stroke="#B58486" fill="#FE4365" id="img-20eae859-14">
            <use xlink:href="#img-20eae859-15" x="228.88" y="18.55"/>
          </g>
          <g stroke="#B58486" fill="#FE4365" id="img-20eae859-16">
            <use xlink:href="#img-20eae859-17" x="219.82" y="17.22"/>
          </g>
          <g stroke="#B58486" fill="#FE4365" id="img-20eae859-18">
            <use xlink:href="#img-20eae859-19" x="210.76" y="34.79"/>
          </g>
          <g stroke="#B58486" fill="#FE4365" id="img-20eae859-20">
            <use xlink:href="#img-20eae859-21" x="201.7" y="37.63"/>
          </g>
          <g stroke="#B58486" fill="#FE4365" id="img-20eae859-22">
            <use xlink:href="#img-20eae859-23" x="192.64" y="48.93"/>
          </g>
          <g stroke="#B58486" fill="#FE4365" id="img-20eae859-24">
            <use xlink:href="#img-20eae859-25" x="183.58" y="52.67"/>
          </g>
          <g stroke="#B58486" fill="#FE4365" id="img-20eae859-26">
            <use xlink:href="#img-20eae859-27" x="174.52" y="62.88"/>
          </g>
          <g stroke="#B58486" fill="#FE4365" id="img-20eae859-28">
            <use xlink:href="#img-20eae859-29" x="165.46" y="64.11"/>
          </g>
          <g stroke="#B58486" fill="#FE4365" id="img-20eae859-30">
            <use xlink:href="#img-20eae859-31" x="156.4" y="67.56"/>
          </g>
          <g stroke="#B58486" fill="#FE4365" id="img-20eae859-32">
            <use xlink:href="#img-20eae859-33" x="147.34" y="73.89"/>
          </g>
          <g stroke="#B58486" fill="#FE4365" id="img-20eae859-34">
            <use xlink:href="#img-20eae859-35" x="138.28" y="76.86"/>
          </g>
          <g stroke="#B58486" fill="#FE4365" id="img-20eae859-36">
            <use xlink:href="#img-20eae859-37" x="129.22" y="82.6"/>
          </g>
          <g stroke="#B58486" fill="#FE4365" id="img-20eae859-38">
            <use xlink:href="#img-20eae859-39" x="120.16" y="87.61"/>
          </g>
          <g stroke="#B58486" fill="#FE4365" id="img-20eae859-40">
            <use xlink:href="#img-20eae859-41" x="111.1" y="80.19"/>
          </g>
          <g stroke="#B58486" fill="#FE4365" id="img-20eae859-42">
            <use xlink:href="#img-20eae859-43" x="102.04" y="72.61"/>
          </g>
          <g stroke="#B58486" fill="#FE4365" id="img-20eae859-44">
            <use xlink:href="#img-20eae859-45" x="92.98" y="73.81"/>
          </g>
          <g stroke="#B58486" fill="#FE4365" id="img-20eae859-46">
            <use xlink:href="#img-20eae859-47" x="83.92" y="58.58"/>
          </g>
          <g stroke="#B58486" fill="#FE4365" id="img-20eae859-48">
            <use xlink:href="#img-20eae859-49" x="74.86" y="43.57"/>
          </g>
          <g stroke="#B58486" fill="#FE4365" id="img-20eae859-50">
            <use xlink:href="#img-20eae859-51" x="65.8" y="31.55"/>
          </g>
          <g stroke="#B58486" fill="#FE4365" id="img-20eae859-52">
            <use xlink:href="#img-20eae859-53" x="56.74" y="24.22"/>
          </g>
          <g stroke="#B58486" fill="#FE4365" id="img-20eae859-54">
            <use xlink:href="#img-20eae859-55" x="47.68" y="22.35"/>
          </g>
          <g stroke="#B58486" fill="#FE4365" id="img-20eae859-56">
            <use xlink:href="#img-20eae859-57" x="38.62" y="32.05"/>
          </g>
          <g stroke="#B58486" fill="#FE4365" id="img-20eae859-58">
            <use xlink:href="#img-20eae859-59" x="29.56" y="15.25"/>
          </g>
          <g stroke="#B58486" fill="#FE4365" id="img-20eae859-60">
            <use xlink:href="#img-20eae859-61" x="20.5" y="16.59"/>
          </g>
        </g>
      </g>
    </g>
  </g>
</g>
  <g class="guide ylabels" font-size="2.82" font-family="'PT Sans Caption','Helvetica Neue','Helvetica',sans-serif" fill="#A1A1A1" id="img-20eae859-62">
    <text x="17.5" y="105.71" text-anchor="end" dy="0.35em">0.66</text>
    <text x="17.5" y="85.97" text-anchor="end" dy="0.35em">0.67</text>
    <text x="17.5" y="66.23" text-anchor="end" dy="0.35em">0.68</text>
    <text x="17.5" y="46.49" text-anchor="end" dy="0.35em">0.69</text>
    <text x="17.5" y="26.74" text-anchor="end" dy="0.35em">0.70</text>
    <text x="17.5" y="7" text-anchor="end" dy="0.35em">0.71</text>
  </g>
  <g font-size="3.88" font-family="'PT Sans','Helvetica Neue','Helvetica',sans-serif" fill="#A1A1A1" stroke="#000000" stroke-opacity="0.000" id="img-20eae859-63">
    <text x="8.81" y="56.36" text-anchor="end" dy="0.35em">y</text>
  </g>
</g>
<defs>
  <clipPath id="img-20eae859-5">
  <path d="M18.5,5 L 249 5 249 107.72 18.5 107.72" />
</clipPath>
  <g id="img-20eae859-15">
    <circle cx="0" cy="0" r="0.9"/>
  </g>
  <g id="img-20eae859-17">
    <circle cx="0" cy="0" r="0.9"/>
  </g>
  <g id="img-20eae859-19">
    <circle cx="0" cy="0" r="0.9"/>
  </g>
  <g id="img-20eae859-21">
    <circle cx="0" cy="0" r="0.9"/>
  </g>
  <g id="img-20eae859-23">
    <circle cx="0" cy="0" r="0.9"/>
  </g>
  <g id="img-20eae859-25">
    <circle cx="0" cy="0" r="0.9"/>
  </g>
  <g id="img-20eae859-27">
    <circle cx="0" cy="0" r="0.9"/>
  </g>
  <g id="img-20eae859-29">
    <circle cx="0" cy="0" r="0.9"/>
  </g>
  <g id="img-20eae859-31">
    <circle cx="0" cy="0" r="0.9"/>
  </g>
  <g id="img-20eae859-33">
    <circle cx="0" cy="0" r="0.9"/>
  </g>
  <g id="img-20eae859-35">
    <circle cx="0" cy="0" r="0.9"/>
  </g>
  <g id="img-20eae859-37">
    <circle cx="0" cy="0" r="0.9"/>
  </g>
  <g id="img-20eae859-39">
    <circle cx="0" cy="0" r="0.9"/>
  </g>
  <g id="img-20eae859-41">
    <circle cx="0" cy="0" r="0.9"/>
  </g>
  <g id="img-20eae859-43">
    <circle cx="0" cy="0" r="0.9"/>
  </g>
  <g id="img-20eae859-45">
    <circle cx="0" cy="0" r="0.9"/>
  </g>
  <g id="img-20eae859-47">
    <circle cx="0" cy="0" r="0.9"/>
  </g>
  <g id="img-20eae859-49">
    <circle cx="0" cy="0" r="0.9"/>
  </g>
  <g id="img-20eae859-51">
    <circle cx="0" cy="0" r="0.9"/>
  </g>
  <g id="img-20eae859-53">
    <circle cx="0" cy="0" r="0.9"/>
  </g>
  <g id="img-20eae859-55">
    <circle cx="0" cy="0" r="0.9"/>
  </g>
  <g id="img-20eae859-57">
    <circle cx="0" cy="0" r="0.9"/>
  </g>
  <g id="img-20eae859-59">
    <circle cx="0" cy="0" r="0.9"/>
  </g>
  <g id="img-20eae859-61">
    <circle cx="0" cy="0" r="0.9"/>
  </g>
</defs>
</svg>
