<?xml version="1.0" encoding="UTF-8"?>
<svg xmlns="http://www.w3.org/2000/svg"
     xmlns:xlink="http://www.w3.org/1999/xlink"
     xmlns:gadfly="http://www.gadflyjl.org/ns"
     version="1.2"
     width="254mm" height="127mm" viewBox="0 0 254 127"
     stroke="none"
     fill="#000000"
     stroke-width="0.3"
     font-size="3.88"
>
<g stroke="#000000" stroke-opacity="0.000" fill="#FDF5E6" id="img-7da0a834-1">
  <rect x="0" y="0" width="254" height="127"/>
</g>
<g class="plotroot xscalable yscalable" id="img-7da0a834-2">
  <g font-size="3.88" font-family="'PT Sans','Helvetica Neue','Helvetica',sans-serif" fill="#564A55" stroke="#000000" stroke-opacity="0.000" id="img-7da0a834-3">
    <text x="135.49" y="115.39" text-anchor="middle" dy="0.6em">Hour</text>
  </g>
  <g class="guide xlabels" font-size="2.82" font-family="'PT Sans Caption','Helvetica Neue','Helvetica',sans-serif" fill="#6C606B" id="img-7da0a834-4">
    <text x="23.98" y="108.72" text-anchor="middle" dy="0.6em">0</text>
    <text x="68.58" y="108.72" text-anchor="middle" dy="0.6em">5</text>
    <text x="113.19" y="108.72" text-anchor="middle" dy="0.6em">10</text>
    <text x="157.79" y="108.72" text-anchor="middle" dy="0.6em">15</text>
    <text x="202.4" y="108.72" text-anchor="middle" dy="0.6em">20</text>
    <text x="247" y="108.72" text-anchor="middle" dy="0.6em">25</text>
  </g>
<g clip-path="url(#img-7da0a834-5)">
  <g id="img-7da0a834-6">
    <g pointer-events="visible" opacity="1" fill="#FFFFFF" stroke="#00008B" class="guide background" id="img-7da0a834-7">
      <rect x="21.98" y="10.61" width="227.02" height="97.1"/>
    </g>
    <g class="guide ygridlines xfixed" stroke-dasharray="0.5,0.5" stroke-width="0.2" stroke="#D0D0E0" id="img-7da0a834-8">
      <path fill="none" d="M21.98,105.71 L 249 105.71"/>
      <path fill="none" d="M21.98,87.09 L 249 87.09"/>
      <path fill="none" d="M21.98,68.47 L 249 68.47"/>
      <path fill="none" d="M21.98,49.85 L 249 49.85"/>
      <path fill="none" d="M21.98,31.23 L 249 31.23"/>
      <path fill="none" d="M21.98,12.61 L 249 12.61"/>
    </g>
    <g class="guide xgridlines yfixed" stroke-dasharray="0.5,0.5" stroke-width="0.2" stroke="#D0D0E0" id="img-7da0a834-9">
      <path fill="none" d="M23.98,10.61 L 23.98 107.72"/>
      <path fill="none" d="M68.58,10.61 L 68.58 107.72"/>
      <path fill="none" d="M113.19,10.61 L 113.19 107.72"/>
      <path fill="none" d="M157.79,10.61 L 157.79 107.72"/>
      <path fill="none" d="M202.4,10.61 L 202.4 107.72"/>
      <path fill="none" d="M247,10.61 L 247 107.72"/>
    </g>
    <g class="plotpanel" id="img-7da0a834-10">
      <g class="geometry color_RGB{Float32}(0.0f0,0.0f0,0.54509807f0)" stroke-width="0.3" stroke="#000064" id="img-7da0a834-11">
        <path fill="none" d="M22.48,97.86 L 25.48 97.86"/>
        <path fill="none" d="M31.4,70.87 L 34.4 70.87"/>
        <path fill="none" d="M40.32,71.22 L 43.32 71.22"/>
        <path fill="none" d="M49.24,58.39 L 52.24 58.39"/>
        <path fill="none" d="M58.16,65.68 L 61.16 65.68"/>
        <path fill="none" d="M67.08,64.7 L 70.08 64.7"/>
        <path fill="none" d="M76,63.01 L 79 63.01"/>
        <path fill="none" d="M84.92,79.5 L 87.92 79.5"/>
        <path fill="none" d="M93.85,74.82 L 96.85 74.82"/>
        <path fill="none" d="M102.77,70.87 L 105.77 70.87"/>
        <path fill="none" d="M111.69,73.19 L 114.69 73.19"/>
        <path fill="none" d="M120.61,71.53 L 123.61 71.53"/>
        <path fill="none" d="M129.53,69.95 L 132.53 69.95"/>
        <path fill="none" d="M138.45,95.87 L 141.45 95.87"/>
        <path fill="none" d="M147.37,104.9 L 150.37 104.9"/>
        <path fill="none" d="M156.29,98.33 L 159.29 98.33"/>
        <path fill="none" d="M165.21,103.26 L 168.21 103.26"/>
        <path fill="none" d="M174.13,102.47 L 177.13 102.47"/>
        <path fill="none" d="M183.05,97.66 L 186.05 97.66"/>
        <path fill="none" d="M191.97,104.48 L 194.97 104.48"/>
        <path fill="none" d="M200.9,102.47 L 203.9 102.47"/>
        <path fill="none" d="M209.82,99.63 L 212.82 99.63"/>
        <path fill="none" d="M218.74,86.56 L 221.74 86.56"/>
        <path fill="none" d="M227.66,93.9 L 230.66 93.9"/>
        <path fill="none" d="M23.98,80.31 L 23.98 97.86"/>
        <path fill="none" d="M32.9,51.71 L 32.9 70.87"/>
        <path fill="none" d="M41.82,50.66 L 41.82 71.22"/>
        <path fill="none" d="M50.74,34.56 L 50.74 58.39"/>
        <path fill="none" d="M59.66,36.62 L 59.66 65.68"/>
        <path fill="none" d="M68.58,29.81 L 68.58 64.7"/>
        <path fill="none" d="M77.5,24.38 L 77.5 63.01"/>
        <path fill="none" d="M86.42,38.14 L 86.42 79.5"/>
        <path fill="none" d="M95.35,36.67 L 95.35 74.82"/>
        <path fill="none" d="M104.27,38.58 L 104.27 70.87"/>
        <path fill="none" d="M113.19,46.67 L 113.19 73.19"/>
        <path fill="none" d="M122.11,48.82 L 122.11 71.53"/>
        <path fill="none" d="M131.03,49.59 L 131.03 69.95"/>
        <path fill="none" d="M139.95,76.25 L 139.95 95.87"/>
        <path fill="none" d="M148.87,86.48 L 148.87 104.9"/>
        <path fill="none" d="M157.79,80.67 L 157.79 98.33"/>
        <path fill="none" d="M166.71,85.95 L 166.71 103.26"/>
        <path fill="none" d="M175.63,85.64 L 175.63 102.47"/>
        <path fill="none" d="M184.55,81.26 L 184.55 97.66"/>
        <path fill="none" d="M193.47,88.41 L 193.47 104.48"/>
        <path fill="none" d="M202.4,86.78 L 202.4 102.47"/>
        <path fill="none" d="M211.32,84.16 L 211.32 99.63"/>
        <path fill="none" d="M220.24,70.8 L 220.24 86.56"/>
        <path fill="none" d="M229.16,77.57 L 229.16 93.9"/>
        <path fill="none" d="M22.48,80.31 L 25.48 80.31"/>
        <path fill="none" d="M31.4,51.71 L 34.4 51.71"/>
        <path fill="none" d="M40.32,50.66 L 43.32 50.66"/>
        <path fill="none" d="M49.24,34.56 L 52.24 34.56"/>
        <path fill="none" d="M58.16,36.62 L 61.16 36.62"/>
        <path fill="none" d="M67.08,29.81 L 70.08 29.81"/>
        <path fill="none" d="M76,24.38 L 79 24.38"/>
        <path fill="none" d="M84.92,38.14 L 87.92 38.14"/>
        <path fill="none" d="M93.85,36.67 L 96.85 36.67"/>
        <path fill="none" d="M102.77,38.58 L 105.77 38.58"/>
        <path fill="none" d="M111.69,46.67 L 114.69 46.67"/>
        <path fill="none" d="M120.61,48.82 L 123.61 48.82"/>
        <path fill="none" d="M129.53,49.59 L 132.53 49.59"/>
        <path fill="none" d="M138.45,76.25 L 141.45 76.25"/>
        <path fill="none" d="M147.37,86.48 L 150.37 86.48"/>
        <path fill="none" d="M156.29,80.67 L 159.29 80.67"/>
        <path fill="none" d="M165.21,85.95 L 168.21 85.95"/>
        <path fill="none" d="M174.13,85.64 L 177.13 85.64"/>
        <path fill="none" d="M183.05,81.26 L 186.05 81.26"/>
        <path fill="none" d="M191.97,88.41 L 194.97 88.41"/>
        <path fill="none" d="M200.9,86.78 L 203.9 86.78"/>
        <path fill="none" d="M209.82,84.16 L 212.82 84.16"/>
        <path fill="none" d="M218.74,70.8 L 221.74 70.8"/>
        <path fill="none" d="M227.66,77.57 L 230.66 77.57"/>
      </g>
      <g stroke-width="0.3" fill="#000000" fill-opacity="0.000" class="geometry" stroke-dasharray="none" stroke="#00008B" id="img-7da0a834-12">
        <path fill="none" d="M32.9,68.55 L 41.82 61.67 50.74 56.37 59.66 52.54 68.58 50.26 77.5 49.44 86.42 50.22 95.35 52.5 104.27 56.14 113.19 60.91 122.11 66.5 131.03 72.55 139.95 78.37 148.87 83.74 157.79 87.91 166.71 90.84 175.63 92.84 184.55 93.76 193.47 93.59 202.4 92.37 211.32 90.04 220.24 86.61 229.16 82.05"/>
      </g>
      <g class="geometry" id="img-7da0a834-13">
        <g class="color_RGBA{Float32}(0.0f0,0.0f0,0.54509807f0,1.0f0)" stroke-width="0.3" id="img-7da0a834-14">
          <g stroke="#FFFFFF" fill="#00008B" id="img-7da0a834-15">
            <use xlink:href="#img-7da0a834-16" x="229.16" y="85.73"/>
          </g>
          <g stroke="#FFFFFF" fill="#00008B" id="img-7da0a834-17">
            <use xlink:href="#img-7da0a834-18" x="220.24" y="78.68"/>
          </g>
          <g stroke="#FFFFFF" fill="#00008B" id="img-7da0a834-19">
            <use xlink:href="#img-7da0a834-20" x="211.32" y="91.9"/>
          </g>
          <g stroke="#FFFFFF" fill="#00008B" id="img-7da0a834-21">
            <use xlink:href="#img-7da0a834-22" x="202.4" y="94.62"/>
          </g>
          <g stroke="#FFFFFF" fill="#00008B" id="img-7da0a834-23">
            <use xlink:href="#img-7da0a834-24" x="193.47" y="96.44"/>
          </g>
          <g stroke="#FFFFFF" fill="#00008B" id="img-7da0a834-25">
            <use xlink:href="#img-7da0a834-26" x="184.55" y="89.46"/>
          </g>
          <g stroke="#FFFFFF" fill="#00008B" id="img-7da0a834-27">
            <use xlink:href="#img-7da0a834-28" x="175.63" y="94.05"/>
          </g>
          <g stroke="#FFFFFF" fill="#00008B" id="img-7da0a834-29">
            <use xlink:href="#img-7da0a834-30" x="166.71" y="94.6"/>
          </g>
          <g stroke="#FFFFFF" fill="#00008B" id="img-7da0a834-31">
            <use xlink:href="#img-7da0a834-32" x="157.79" y="89.5"/>
          </g>
          <g stroke="#FFFFFF" fill="#00008B" id="img-7da0a834-33">
            <use xlink:href="#img-7da0a834-34" x="148.87" y="95.69"/>
          </g>
          <g stroke="#FFFFFF" fill="#00008B" id="img-7da0a834-35">
            <use xlink:href="#img-7da0a834-36" x="139.95" y="86.06"/>
          </g>
          <g stroke="#FFFFFF" fill="#00008B" id="img-7da0a834-37">
            <use xlink:href="#img-7da0a834-38" x="131.03" y="59.77"/>
          </g>
          <g stroke="#FFFFFF" fill="#00008B" id="img-7da0a834-39">
            <use xlink:href="#img-7da0a834-40" x="122.11" y="60.18"/>
          </g>
          <g stroke="#FFFFFF" fill="#00008B" id="img-7da0a834-41">
            <use xlink:href="#img-7da0a834-42" x="113.19" y="59.93"/>
          </g>
          <g stroke="#FFFFFF" fill="#00008B" id="img-7da0a834-43">
            <use xlink:href="#img-7da0a834-44" x="104.27" y="54.72"/>
          </g>
          <g stroke="#FFFFFF" fill="#00008B" id="img-7da0a834-45">
            <use xlink:href="#img-7da0a834-46" x="95.35" y="55.75"/>
          </g>
          <g stroke="#FFFFFF" fill="#00008B" id="img-7da0a834-47">
            <use xlink:href="#img-7da0a834-48" x="86.42" y="58.82"/>
          </g>
          <g stroke="#FFFFFF" fill="#00008B" id="img-7da0a834-49">
            <use xlink:href="#img-7da0a834-50" x="77.5" y="43.69"/>
          </g>
          <g stroke="#FFFFFF" fill="#00008B" id="img-7da0a834-51">
            <use xlink:href="#img-7da0a834-52" x="68.58" y="47.25"/>
          </g>
          <g stroke="#FFFFFF" fill="#00008B" id="img-7da0a834-53">
            <use xlink:href="#img-7da0a834-54" x="59.66" y="51.15"/>
          </g>
          <g stroke="#FFFFFF" fill="#00008B" id="img-7da0a834-55">
            <use xlink:href="#img-7da0a834-56" x="50.74" y="46.48"/>
          </g>
          <g stroke="#FFFFFF" fill="#00008B" id="img-7da0a834-57">
            <use xlink:href="#img-7da0a834-58" x="41.82" y="60.94"/>
          </g>
          <g stroke="#FFFFFF" fill="#00008B" id="img-7da0a834-59">
            <use xlink:href="#img-7da0a834-60" x="32.9" y="61.29"/>
          </g>
          <g stroke="#FFFFFF" fill="#00008B" id="img-7da0a834-61">
            <use xlink:href="#img-7da0a834-62" x="23.98" y="89.09"/>
          </g>
        </g>
      </g>
    </g>
  </g>
</g>
  <g class="guide ylabels" font-size="2.82" font-family="'PT Sans Caption','Helvetica Neue','Helvetica',sans-serif" fill="#6C606B" id="img-7da0a834-63">
    <text x="20.98" y="105.71" text-anchor="end" dy="0.35em">0.685</text>
    <text x="20.98" y="87.09" text-anchor="end" dy="0.35em">0.690</text>
    <text x="20.98" y="68.47" text-anchor="end" dy="0.35em">0.695</text>
    <text x="20.98" y="49.85" text-anchor="end" dy="0.35em">0.700</text>
    <text x="20.98" y="31.23" text-anchor="end" dy="0.35em">0.705</text>
    <text x="20.98" y="12.61" text-anchor="end" dy="0.35em">0.710</text>
  </g>
  <g font-size="3.88" font-family="'PT Sans','Helvetica Neue','Helvetica',sans-serif" fill="#564A55" stroke="#000000" stroke-opacity="0.000" id="img-7da0a834-64">
    <text x="8.81" y="57.16" text-anchor="middle" dy="0.35em" transform="rotate(-90, 8.81, 59.16)">Percent</text>
  </g>
  <g font-size="3.88" font-family="'PT Sans','Helvetica Neue','Helvetica',sans-serif" fill="#564A55" stroke="#000000" stroke-opacity="0.000" id="img-7da0a834-65">
    <text x="135.49" y="5" text-anchor="middle" dy="0.6em">Mean likelihood of stickiness by hour</text>
  </g>
</g>
<defs>
  <clipPath id="img-7da0a834-5">
  <path d="M21.98,10.61 L 249 10.61 249 107.72 21.98 107.72" />
</clipPath>
  <g id="img-7da0a834-16">
    <circle cx="0" cy="0" r="0.9"/>
  </g>
  <g id="img-7da0a834-18">
    <circle cx="0" cy="0" r="0.9"/>
  </g>
  <g id="img-7da0a834-20">
    <circle cx="0" cy="0" r="0.9"/>
  </g>
  <g id="img-7da0a834-22">
    <circle cx="0" cy="0" r="0.9"/>
  </g>
  <g id="img-7da0a834-24">
    <circle cx="0" cy="0" r="0.9"/>
  </g>
  <g id="img-7da0a834-26">
    <circle cx="0" cy="0" r="0.9"/>
  </g>
  <g id="img-7da0a834-28">
    <circle cx="0" cy="0" r="0.9"/>
  </g>
  <g id="img-7da0a834-30">
    <circle cx="0" cy="0" r="0.9"/>
  </g>
  <g id="img-7da0a834-32">
    <circle cx="0" cy="0" r="0.9"/>
  </g>
  <g id="img-7da0a834-34">
    <circle cx="0" cy="0" r="0.9"/>
  </g>
  <g id="img-7da0a834-36">
    <circle cx="0" cy="0" r="0.9"/>
  </g>
  <g id="img-7da0a834-38">
    <circle cx="0" cy="0" r="0.9"/>
  </g>
  <g id="img-7da0a834-40">
    <circle cx="0" cy="0" r="0.9"/>
  </g>
  <g id="img-7da0a834-42">
    <circle cx="0" cy="0" r="0.9"/>
  </g>
  <g id="img-7da0a834-44">
    <circle cx="0" cy="0" r="0.9"/>
  </g>
  <g id="img-7da0a834-46">
    <circle cx="0" cy="0" r="0.9"/>
  </g>
  <g id="img-7da0a834-48">
    <circle cx="0" cy="0" r="0.9"/>
  </g>
  <g id="img-7da0a834-50">
    <circle cx="0" cy="0" r="0.9"/>
  </g>
  <g id="img-7da0a834-52">
    <circle cx="0" cy="0" r="0.9"/>
  </g>
  <g id="img-7da0a834-54">
    <circle cx="0" cy="0" r="0.9"/>
  </g>
  <g id="img-7da0a834-56">
    <circle cx="0" cy="0" r="0.9"/>
  </g>
  <g id="img-7da0a834-58">
    <circle cx="0" cy="0" r="0.9"/>
  </g>
  <g id="img-7da0a834-60">
    <circle cx="0" cy="0" r="0.9"/>
  </g>
  <g id="img-7da0a834-62">
    <circle cx="0" cy="0" r="0.9"/>
  </g>
</defs>
</svg>
