<?xml version="1.0" encoding="UTF-8"?>
<svg xmlns="http://www.w3.org/2000/svg"
     xmlns:xlink="http://www.w3.org/1999/xlink"
     xmlns:gadfly="http://www.gadflyjl.org/ns"
     version="1.2"
     width="254mm" height="127mm" viewBox="0 0 254 127"
     stroke="none"
     fill="#000000"
     stroke-width="0.3"
     font-size="3.88"
>
<g stroke="#000000" stroke-opacity="0.000" fill="#FDF5E6" id="img-4f530294-1">
  <rect x="0" y="0" width="254" height="127"/>
</g>
<g class="plotroot xscalable yscalable" id="img-4f530294-2">
  <g font-size="3.88" font-family="'PT Sans','Helvetica Neue','Helvetica',sans-serif" fill="#564A55" stroke="#000000" stroke-opacity="0.000" id="img-4f530294-3">
    <text x="137.86" y="115.39" text-anchor="middle" dy="0.6em">Hour</text>
  </g>
  <g class="guide xlabels" font-size="2.82" font-family="'PT Sans Caption','Helvetica Neue','Helvetica',sans-serif" fill="#6C606B" id="img-4f530294-4">
    <text x="28.72" y="108.72" text-anchor="middle" dy="0.6em">0</text>
    <text x="72.38" y="108.72" text-anchor="middle" dy="0.6em">5</text>
    <text x="116.04" y="108.72" text-anchor="middle" dy="0.6em">10</text>
    <text x="159.69" y="108.72" text-anchor="middle" dy="0.6em">15</text>
    <text x="203.34" y="108.72" text-anchor="middle" dy="0.6em">20</text>
    <text x="247" y="108.72" text-anchor="middle" dy="0.6em">25</text>
  </g>
<g clip-path="url(#img-4f530294-5)">
  <g id="img-4f530294-6">
    <g pointer-events="visible" opacity="1" fill="#FFFFFF" stroke="#00008B" class="guide background" id="img-4f530294-7">
      <rect x="26.72" y="10.61" width="222.27" height="97.1"/>
    </g>
    <g class="guide ygridlines xfixed" stroke-dasharray="0.5,0.5" stroke-width="0.2" stroke="#D0D0E0" id="img-4f530294-8">
      <path fill="none" d="M26.72,105.72 L 249 105.72"/>
      <path fill="none" d="M26.72,87.09 L 249 87.09"/>
      <path fill="none" d="M26.72,68.47 L 249 68.47"/>
      <path fill="none" d="M26.72,49.85 L 249 49.85"/>
      <path fill="none" d="M26.72,31.23 L 249 31.23"/>
      <path fill="none" d="M26.72,12.61 L 249 12.61"/>
    </g>
    <g class="guide xgridlines yfixed" stroke-dasharray="0.5,0.5" stroke-width="0.2" stroke="#D0D0E0" id="img-4f530294-9">
      <path fill="none" d="M28.72,10.61 L 28.72 107.72"/>
      <path fill="none" d="M72.38,10.61 L 72.38 107.72"/>
      <path fill="none" d="M116.04,10.61 L 116.04 107.72"/>
      <path fill="none" d="M159.69,10.61 L 159.69 107.72"/>
      <path fill="none" d="M203.34,10.61 L 203.34 107.72"/>
      <path fill="none" d="M247,10.61 L 247 107.72"/>
    </g>
    <g class="plotpanel" id="img-4f530294-10">
      <g class="geometry color_RGB{Float32}(0.0f0,0.0f0,0.54509807f0)" stroke-width="0.3" stroke="#000064" id="img-4f530294-11">
        <path fill="none" d="M27.22,95.27 L 30.22 95.27"/>
        <path fill="none" d="M35.96,92.9 L 38.96 92.9"/>
        <path fill="none" d="M44.69,91.35 L 47.69 91.35"/>
        <path fill="none" d="M53.42,86.64 L 56.42 86.64"/>
        <path fill="none" d="M62.15,80.4 L 65.15 80.4"/>
        <path fill="none" d="M70.88,71.24 L 73.88 71.24"/>
        <path fill="none" d="M79.61,64.5 L 82.61 64.5"/>
        <path fill="none" d="M88.34,45.85 L 91.34 45.85"/>
        <path fill="none" d="M97.07,31.94 L 100.07 31.94"/>
        <path fill="none" d="M105.8,33.65 L 108.8 33.65"/>
        <path fill="none" d="M114.54,48.38 L 117.54 48.38"/>
        <path fill="none" d="M123.27,63.64 L 126.27 63.64"/>
        <path fill="none" d="M132,76.59 L 135 76.59"/>
        <path fill="none" d="M140.73,83.12 L 143.73 83.12"/>
        <path fill="none" d="M149.46,88.53 L 152.46 88.53"/>
        <path fill="none" d="M158.19,91.17 L 161.19 91.17"/>
        <path fill="none" d="M166.92,92.66 L 169.92 92.66"/>
        <path fill="none" d="M175.65,93.64 L 178.65 93.64"/>
        <path fill="none" d="M184.38,94.65 L 187.38 94.65"/>
        <path fill="none" d="M193.11,95.28 L 196.11 95.28"/>
        <path fill="none" d="M201.84,96.29 L 204.84 96.29"/>
        <path fill="none" d="M210.58,97.15 L 213.58 97.15"/>
        <path fill="none" d="M219.31,97.17 L 222.31 97.17"/>
        <path fill="none" d="M228.04,96.7 L 231.04 96.7"/>
        <path fill="none" d="M28.72,94.9 L 28.72 95.27"/>
        <path fill="none" d="M37.46,92.43 L 37.46 92.9"/>
        <path fill="none" d="M46.19,90.76 L 46.19 91.35"/>
        <path fill="none" d="M54.92,85.68 L 54.92 86.64"/>
        <path fill="none" d="M63.65,79.12 L 63.65 80.4"/>
        <path fill="none" d="M72.38,69.3 L 72.38 71.24"/>
        <path fill="none" d="M81.11,61.93 L 81.11 64.5"/>
        <path fill="none" d="M89.84,42.15 L 89.84 45.85"/>
        <path fill="none" d="M98.57,27.54 L 98.57 31.94"/>
        <path fill="none" d="M107.3,28.64 L 107.3 33.65"/>
        <path fill="none" d="M116.04,45.15 L 116.04 48.38"/>
        <path fill="none" d="M124.77,61.2 L 124.77 63.64"/>
        <path fill="none" d="M133.5,74.81 L 133.5 76.59"/>
        <path fill="none" d="M142.23,81.85 L 142.23 83.12"/>
        <path fill="none" d="M150.96,87.67 L 150.96 88.53"/>
        <path fill="none" d="M159.69,90.4 L 159.69 91.17"/>
        <path fill="none" d="M168.42,92.13 L 168.42 92.66"/>
        <path fill="none" d="M177.15,93.25 L 177.15 93.64"/>
        <path fill="none" d="M185.88,94.29 L 185.88 94.65"/>
        <path fill="none" d="M194.61,94.95 L 194.61 95.28"/>
        <path fill="none" d="M203.34,95.9 L 203.34 96.29"/>
        <path fill="none" d="M212.08,96.89 L 212.08 97.15"/>
        <path fill="none" d="M220.81,96.89 L 220.81 97.17"/>
        <path fill="none" d="M229.54,96.4 L 229.54 96.7"/>
        <path fill="none" d="M27.22,94.9 L 30.22 94.9"/>
        <path fill="none" d="M35.96,92.43 L 38.96 92.43"/>
        <path fill="none" d="M44.69,90.76 L 47.69 90.76"/>
        <path fill="none" d="M53.42,85.68 L 56.42 85.68"/>
        <path fill="none" d="M62.15,79.12 L 65.15 79.12"/>
        <path fill="none" d="M70.88,69.3 L 73.88 69.3"/>
        <path fill="none" d="M79.61,61.93 L 82.61 61.93"/>
        <path fill="none" d="M88.34,42.15 L 91.34 42.15"/>
        <path fill="none" d="M97.07,27.54 L 100.07 27.54"/>
        <path fill="none" d="M105.8,28.64 L 108.8 28.64"/>
        <path fill="none" d="M114.54,45.15 L 117.54 45.15"/>
        <path fill="none" d="M123.27,61.2 L 126.27 61.2"/>
        <path fill="none" d="M132,74.81 L 135 74.81"/>
        <path fill="none" d="M140.73,81.85 L 143.73 81.85"/>
        <path fill="none" d="M149.46,87.67 L 152.46 87.67"/>
        <path fill="none" d="M158.19,90.4 L 161.19 90.4"/>
        <path fill="none" d="M166.92,92.13 L 169.92 92.13"/>
        <path fill="none" d="M175.65,93.25 L 178.65 93.25"/>
        <path fill="none" d="M184.38,94.29 L 187.38 94.29"/>
        <path fill="none" d="M193.11,94.95 L 196.11 94.95"/>
        <path fill="none" d="M201.84,95.9 L 204.84 95.9"/>
        <path fill="none" d="M210.58,96.89 L 213.58 96.89"/>
        <path fill="none" d="M219.31,96.89 L 222.31 96.89"/>
        <path fill="none" d="M228.04,96.4 L 231.04 96.4"/>
      </g>
      <g stroke-width="0.3" fill="#000000" fill-opacity="0.000" class="geometry" stroke-dasharray="none" stroke="#00008B" id="img-4f530294-12">
        <path fill="none" d="M37.46,93.65 L 46.19 90.96 54.92 86.39 63.65 79.95 72.38 70.62 81.11 58.69 89.84 43.75 98.57 35.16 107.3 34.01 116.04 46.01 124.77 60.23 133.5 74.28 142.23 82.6 150.96 87.97 159.69 90.83 168.42 92.55 177.15 93.64 185.88 94.41 194.61 95.38 203.34 96.13 212.08 96.62 220.81 96.84 229.54 96.77"/>
      </g>
      <g class="geometry" id="img-4f530294-13">
        <g class="color_RGBA{Float32}(0.0f0,0.0f0,0.54509807f0,1.0f0)" stroke-width="0.3" id="img-4f530294-14">
          <g stroke="#FFFFFF" fill="#00008B" id="img-4f530294-15">
            <use xlink:href="#img-4f530294-16" x="229.54" y="96.55"/>
          </g>
          <g stroke="#FFFFFF" fill="#00008B" id="img-4f530294-17">
            <use xlink:href="#img-4f530294-18" x="220.81" y="97.03"/>
          </g>
          <g stroke="#FFFFFF" fill="#00008B" id="img-4f530294-19">
            <use xlink:href="#img-4f530294-20" x="212.08" y="97.02"/>
          </g>
          <g stroke="#FFFFFF" fill="#00008B" id="img-4f530294-21">
            <use xlink:href="#img-4f530294-22" x="203.34" y="96.09"/>
          </g>
          <g stroke="#FFFFFF" fill="#00008B" id="img-4f530294-23">
            <use xlink:href="#img-4f530294-24" x="194.61" y="95.11"/>
          </g>
          <g stroke="#FFFFFF" fill="#00008B" id="img-4f530294-25">
            <use xlink:href="#img-4f530294-26" x="185.88" y="94.47"/>
          </g>
          <g stroke="#FFFFFF" fill="#00008B" id="img-4f530294-27">
            <use xlink:href="#img-4f530294-28" x="177.15" y="93.45"/>
          </g>
          <g stroke="#FFFFFF" fill="#00008B" id="img-4f530294-29">
            <use xlink:href="#img-4f530294-30" x="168.42" y="92.4"/>
          </g>
          <g stroke="#FFFFFF" fill="#00008B" id="img-4f530294-31">
            <use xlink:href="#img-4f530294-32" x="159.69" y="90.79"/>
          </g>
          <g stroke="#FFFFFF" fill="#00008B" id="img-4f530294-33">
            <use xlink:href="#img-4f530294-34" x="150.96" y="88.1"/>
          </g>
          <g stroke="#FFFFFF" fill="#00008B" id="img-4f530294-35">
            <use xlink:href="#img-4f530294-36" x="142.23" y="82.49"/>
          </g>
          <g stroke="#FFFFFF" fill="#00008B" id="img-4f530294-37">
            <use xlink:href="#img-4f530294-38" x="133.5" y="75.7"/>
          </g>
          <g stroke="#FFFFFF" fill="#00008B" id="img-4f530294-39">
            <use xlink:href="#img-4f530294-40" x="124.77" y="62.42"/>
          </g>
          <g stroke="#FFFFFF" fill="#00008B" id="img-4f530294-41">
            <use xlink:href="#img-4f530294-42" x="116.04" y="46.77"/>
          </g>
          <g stroke="#FFFFFF" fill="#00008B" id="img-4f530294-43">
            <use xlink:href="#img-4f530294-44" x="107.3" y="31.15"/>
          </g>
          <g stroke="#FFFFFF" fill="#00008B" id="img-4f530294-45">
            <use xlink:href="#img-4f530294-46" x="98.57" y="29.74"/>
          </g>
          <g stroke="#FFFFFF" fill="#00008B" id="img-4f530294-47">
            <use xlink:href="#img-4f530294-48" x="89.84" y="44"/>
          </g>
          <g stroke="#FFFFFF" fill="#00008B" id="img-4f530294-49">
            <use xlink:href="#img-4f530294-50" x="81.11" y="63.21"/>
          </g>
          <g stroke="#FFFFFF" fill="#00008B" id="img-4f530294-51">
            <use xlink:href="#img-4f530294-52" x="72.38" y="70.27"/>
          </g>
          <g stroke="#FFFFFF" fill="#00008B" id="img-4f530294-53">
            <use xlink:href="#img-4f530294-54" x="63.65" y="79.76"/>
          </g>
          <g stroke="#FFFFFF" fill="#00008B" id="img-4f530294-55">
            <use xlink:href="#img-4f530294-56" x="54.92" y="86.16"/>
          </g>
          <g stroke="#FFFFFF" fill="#00008B" id="img-4f530294-57">
            <use xlink:href="#img-4f530294-58" x="46.19" y="91.05"/>
          </g>
          <g stroke="#FFFFFF" fill="#00008B" id="img-4f530294-59">
            <use xlink:href="#img-4f530294-60" x="37.46" y="92.67"/>
          </g>
          <g stroke="#FFFFFF" fill="#00008B" id="img-4f530294-61">
            <use xlink:href="#img-4f530294-62" x="28.72" y="95.09"/>
          </g>
        </g>
      </g>
    </g>
  </g>
</g>
  <g class="guide ylabels" font-size="2.82" font-family="'PT Sans Caption','Helvetica Neue','Helvetica',sans-serif" fill="#6C606B" id="img-4f530294-63">
    <text x="25.72" y="105.72" text-anchor="end" dy="0.35em">0</text>
    <text x="25.72" y="87.09" text-anchor="end" dy="0.35em">1.0×10³</text>
    <text x="25.72" y="68.47" text-anchor="end" dy="0.35em">2.0×10³</text>
    <text x="25.72" y="49.85" text-anchor="end" dy="0.35em">3.0×10³</text>
    <text x="25.72" y="31.23" text-anchor="end" dy="0.35em">4.0×10³</text>
    <text x="25.72" y="12.61" text-anchor="end" dy="0.35em">5.0×10³</text>
  </g>
  <g font-size="3.88" font-family="'PT Sans','Helvetica Neue','Helvetica',sans-serif" fill="#564A55" stroke="#000000" stroke-opacity="0.000" id="img-4f530294-64">
    <text x="8.81" y="57.16" text-anchor="middle" dy="0.35em" transform="rotate(-90, 8.81, 59.16)">Seconds</text>
  </g>
  <g font-size="3.88" font-family="'PT Sans','Helvetica Neue','Helvetica',sans-serif" fill="#564A55" stroke="#000000" stroke-opacity="0.000" id="img-4f530294-65">
    <text x="137.86" y="5" text-anchor="middle" dy="0.6em">Mean gap between microsessions by hour</text>
  </g>
</g>
<defs>
  <clipPath id="img-4f530294-5">
  <path d="M26.72,10.61 L 249 10.61 249 107.72 26.72 107.72" />
</clipPath>
  <g id="img-4f530294-16">
    <circle cx="0" cy="0" r="0.9"/>
  </g>
  <g id="img-4f530294-18">
    <circle cx="0" cy="0" r="0.9"/>
  </g>
  <g id="img-4f530294-20">
    <circle cx="0" cy="0" r="0.9"/>
  </g>
  <g id="img-4f530294-22">
    <circle cx="0" cy="0" r="0.9"/>
  </g>
  <g id="img-4f530294-24">
    <circle cx="0" cy="0" r="0.9"/>
  </g>
  <g id="img-4f530294-26">
    <circle cx="0" cy="0" r="0.9"/>
  </g>
  <g id="img-4f530294-28">
    <circle cx="0" cy="0" r="0.9"/>
  </g>
  <g id="img-4f530294-30">
    <circle cx="0" cy="0" r="0.9"/>
  </g>
  <g id="img-4f530294-32">
    <circle cx="0" cy="0" r="0.9"/>
  </g>
  <g id="img-4f530294-34">
    <circle cx="0" cy="0" r="0.9"/>
  </g>
  <g id="img-4f530294-36">
    <circle cx="0" cy="0" r="0.9"/>
  </g>
  <g id="img-4f530294-38">
    <circle cx="0" cy="0" r="0.9"/>
  </g>
  <g id="img-4f530294-40">
    <circle cx="0" cy="0" r="0.9"/>
  </g>
  <g id="img-4f530294-42">
    <circle cx="0" cy="0" r="0.9"/>
  </g>
  <g id="img-4f530294-44">
    <circle cx="0" cy="0" r="0.9"/>
  </g>
  <g id="img-4f530294-46">
    <circle cx="0" cy="0" r="0.9"/>
  </g>
  <g id="img-4f530294-48">
    <circle cx="0" cy="0" r="0.9"/>
  </g>
  <g id="img-4f530294-50">
    <circle cx="0" cy="0" r="0.9"/>
  </g>
  <g id="img-4f530294-52">
    <circle cx="0" cy="0" r="0.9"/>
  </g>
  <g id="img-4f530294-54">
    <circle cx="0" cy="0" r="0.9"/>
  </g>
  <g id="img-4f530294-56">
    <circle cx="0" cy="0" r="0.9"/>
  </g>
  <g id="img-4f530294-58">
    <circle cx="0" cy="0" r="0.9"/>
  </g>
  <g id="img-4f530294-60">
    <circle cx="0" cy="0" r="0.9"/>
  </g>
  <g id="img-4f530294-62">
    <circle cx="0" cy="0" r="0.9"/>
  </g>
</defs>
</svg>
